<?xml version="1.0" encoding="UTF-8" standalone="no"?>
<svg xmlns:rdf="http://www.w3.org/1999/02/22-rdf-syntax-ns#" xmlns="http://www.w3.org/2000/svg" viewBox="0 0 256 256" version="1.1" xmlns:cc="http://creativecommons.org/ns#" xmlns:dc="http://purl.org/dc/elements/1.1/">
 <path d="m109.96 43.984c2.319 2.4964 3.5312 6.2044 3.4805 9.6113-0.053 3.5649-1.4292 7.4116-3.9394 9.9434-2.2418 2.2609-5.6657 3.5888-8.8496 3.5938-3.1094 0.0052-6.4685-1.2691-8.6543-3.4805-2.5642-2.5942-3.9551-6.5516-3.9668-10.199-0.01117-3.4731 1.301-7.2391 3.7148-9.7363 2.2836-2.3624 5.7985-3.8599 9.084-3.8223 3.3344 0.03815 6.8613 1.6467 9.1308 4.0898zm92.373 24.369c7.839-0.000524 14.194 6.1961 14.193 13.84-0.007 4.4196-1.6352 8.0835-5.8438 11.17-0.007 0.70245-0.0137 1.0371-0.0137 1.0371l0.43945 0.54688-1.0098 0.99804-0.43555 0.31836 0.99611 0.96682-0.31054 0.66992 0.55468 0.83399-1.2226 1.3711 0.78515 0.56836h-0.46093l-0.58008-0.39453-0.60938 0.41797h-0.46093l0.85351-0.63672-0.44726-0.76953 0.40625-0.69727-0.4375-0.41601-0.72266 0.73437 0.74805 1.0137-0.55664 0.88477 0.5 0.31836h-0.4629l-0.23828-0.14844-0.48632 0.32813h-0.4629l0.71485-0.49805-0.31641-0.28711-0.79101 0.60547h-0.46289l1.043-0.82227-0.24218-0.56054 0.2207-0.52344-0.94922-0.90821 0.0547 0.16407-0.46875 0.82617 0.57031 0.84961-0.39258 0.71484-0.52929 0.64258 0.62695 0.41016h-0.46289l-0.37695-0.24805-0.41993 0.2793h-0.46289l0.63282-0.41602h-0.32032l0.23829-0.13672-0.43165-0.52539-0.70703 0.62305-0.84975 0.66016 0.25196 0.14843h-0.46289l-0.81259-0.62699-0.92969 0.75h-0.46094l0.94141-0.72461h-0.0781c0.17055-0.0189 0.19356-0.18969 0.29102-0.2852l-0.19531-0.49609 0.10742-0.34961-0.4961-0.47656-0.58984 1.3418 0.56055 0.36329h-0.46094l-0.33399-0.21875h-0.29687l0.0781-0.16016-0.69141-1.0059c0.43477-0.38055 0.72973-1.0221 0.97065-1.4317l0.14844-0.3457-0.53906-0.93164-0.0254-0.23828-0.75977-0.8379 0.51758-0.59179s0.008-0.2581-0.10547-0.27344c-5.998-0.81023-11.451-6.9627-11.453-13.574-0.00057-7.643 6.3531-13.839 14.191-13.84zm-88.895 1.4999c9.8261 0 17.793 8.5371 17.793 19.066v42.215c-0.00059 3.384-2.5608 6.127-5.7188 6.127s-5.7182-2.743-5.7188-6.127v-39.492h-2.543v107.58c-0.00068 4.5121-3.4143 8.168-7.625 8.168s-7.6243-3.6559-7.625-8.168v-61.281h-2.541v61.281c0 4.5126-3.4138 8.1699-7.625 8.1699s-7.625-3.6573-7.625-8.1699v-107.58h-2.541v39.492c-0.000591 3.384-2.5608 6.127-5.7188 6.127s-5.7182-2.743-5.7188-6.127v-42.215c0-12.723 9.7431-18.828 17.791-19.066zm70.631 22.184c4.2698 0.11756 7.6441 1.9038 9.8281 8.25 0.28439 0.7933 0.48046 1.6812 0.61524 2.5996 0.22936 0.48372 0.45971 1.0178 0.68945 1.6348 0.82793 2.2234 2.5594 6.4519 3.3047 10.643 4.8748 10.452 16.481 19.269 16.355 23.836 1.7026-0.31884 3.7219-0.56084 5.752-0.46094v0.002c4.9793 0.24622 12.165 1.6844 15.066 4.7461 2.6941 2.8431 3.3735 6.3554 3.4609 6.8613 0.001 0.0004 0.0391 0.0117 0.0391 0.0117l0.0508 55.846-6.1543-0.2793 0.20508-37.926h-18.021l0.0449 37.766-6.9238-0.33008 0.1543-64.861c-3.7569-2.4535-8.5014-8.0848-14.057-13.242-3.1436-2.9184-5.3035-6.1802-6.7578-8.877l-17.303 20.109 16.928 19.672c1.092 1.2692 1.6367 2.5397 1.6367 5.0781v33c-0.003 4.2031-2.9346 7.6074-6.5508 7.6074s-6.5497-3.4043-6.5527-7.6074v-23.48l-24.57-28.559c-2.184-2.5385-3.8223-6.3466-3.8223-10.154 0-3.8077 1.0914-7.6139 3.2754-10.152l16.381-19.039s9.8846-12.887 16.926-12.693zm25.676 1.9453 0.56641 0.25 0.0879-0.17578-0.0547-0.45898zm-0.2461 0.13668-0.4043 0.22657c0.0432 0.10331-0.0255 0.19722-0.0371 0.28714l0.32422 0.14454 0.75586-0.36719zm0.91226 0.44926-0.73829 0.33008 0.58776 0.66211 0.38671-0.58984zm-2.4592 0.76368 0.625 0.29102c-0.0278-0.28561 0.3346-0.51691 0.52153-0.72461l-0.15823-0.0742zm1.0645 0.19534 0.375 0.58203 0.25976-0.16211 0.15234-0.39649-0.41796-0.51757zm-2.8848 0.26367 0.49609 0.57617-0.34179 0.56641-0.77539 0.71875 0.55273 0.36328-0.0644-0.33008 1.2285-1.0938-0.4414-0.63086 0.38671-0.51758-0.32084-0.10769zm1.9727 0.16797-0.44336 0.63281 0.35156 0.22461 0.48633-0.6543-0.64063-0.62109zm-0.85547 0.0254 0.19726 0.45312 0.19727-0.45312-0.19727-0.36719zm-2.3457-0.18949 0.32618 0.14649 0.33789-0.15039-0.20313-0.0957zm0.60327 0.26895 0.64844 0.38477c-0.00007-0.1863-0.19732-0.3524-0.28874-0.51567zm-2.2068 0.0665 0.95117 0.51172 0.23047-0.32813-0.47746-0.33086zm-1.543 0.4513 0.89453-0.40234-0.23828-0.15039-1.7383-0.10154zm-1.5567-0.50773 0.11914 0.52734 0.0918 0.88868 0.80078 0.64062c0.16749-0.11227 0.2756-0.29651 0.41211-0.44339l-0.31836-0.55078 0.22265-0.39648c-0.40621-0.25345-0.933-0.48186-1.3281-0.66599zm4.7578 0.25389 0.0527 0.16015-0.28711 0.53125 0.39257 0.38086 0.71094-0.44922 0.0274-0.14257-0.62305-0.61524zm-5.3145 0.32836 0.26953 0.51563-0.0566-0.54688-0.0644-0.28711zm2.3966 0.0644 0.39649 0.45507 0.42773-0.61523zm0.38275 0.74428-0.22656 0.3125 0.54883 0.34765c0.60972-0.26533 0.88667-0.72214 1.2148-1.1133l-0.50377-0.54487c-0.39879 0.25318-0.70355 0.65824-1.0333 0.998zm7.0352-0.79292 0.625 0.97656 0.1211-0.41992-0.68167-0.75391zm-0.83013 0.54101 0.26368 0.47266-0.0273 0.17578 0.5332 0.51758 0.49219-0.47852-0.88478-1.2168zm-2.1738 0.47069c0.17191 0.45348 0.96223 1.1022 1.0937 1.2266l-0.69335-1.0449 0.93945-0.91016-0.34961-0.22266zm0.8555 0.1797 0.47071 0.82617 0.62695-0.82617-0.24609-0.60937-0.14647-0.15822zm-3.8672 0.10154-0.082 0.24804 1.3535 1.7363 0.30469-0.28516-0.8086-1.1543 0.35352-0.54297 0.33008-0.42774-0.42152-0.25689zm-2.9961-0.17578 0.3125 0.625 0.0723-0.0586zm4.5723 0.17387-0.041 0.12891 0.64063 0.99219 0.24609-0.60743-0.57423-0.68554zm-3.3418 0.29691 0.95117 1.2852c0.16646-0.21498-0.19012-0.59998-0.31057-0.8301l0.22851-0.4336-0.56834-0.36132c-0.22379 0.009-0.20602 0.23277-0.30077 0.33982zm7.9512 0.33395 0.43164 0.7207-0.0508 0.20899 0.45508-0.76172-0.33983-0.64062zm-8.5352 0.3125 0.18945 0.27344-0.041 0.58984 0.57813 0.54883 0.58203-0.55078-1.1406-1.2422zm8.1054 0.41209 0.21875 0.52344 0.20507-0.5-0.2207-0.52735zm-6.0293 0.14844 1.0371 1.2617 0.16015-0.42578-0.98437-1.2559zm4.6094-0.33981-0.10156 0.0957 0.22266 0.52344-0.24414 0.56054 0.30859 0.30469 0.35156-0.6582zm-7.9531 1.3203 0.39062 0.69531 0.58594-1.3574-0.2832-0.31055zm3.2754 1.2109 0.33008-0.20508 0.34765-0.65039-0.6582-0.48047-0.92773 1.1777 0.56445 0.51367 0.46875-0.35546zm2.1464-1.7792-0.38867 0.6875 0.34961 0.65625 0.39453-0.35547 0.0684-0.26758zm-3.1758 0.69338 0.17385 0.51951 0.4375-0.74024-0.0879-0.32616zm17.893 43.334c-0.50636-0.008-1.0023-0.001-1.4805 0.0215-1.0783 0.0513-2.194 0.25746-3.252 0.51953l0.0234 19.332h18.049l0.0742-13.717c-0.0296-0.11855-0.0354-0.2229-0.0156-0.3125-0.22355-0.86544-1.1837-3.7792-4.4316-4.6719-1.4052-0.38873-5.4223-1.1173-8.9668-1.1719zm-178.7 17.137c0 4.1421-3.3579 7.5-7.5 7.5s-7.5-3.3579-7.5-7.5 3.3579-7.5 7.5-7.5 7.5 3.3579 7.5 7.5zm-3 9.25c1.5 0 2 0.5 3 1.5l10 10c2.2865 2.3332-1.1668 5.7866-3.5 3.5l-6-6v5.5h-16v-5.5l-6 6c-2.3332 2.2866-5.7865-1.1668-3.5-3.5l10-10c1-1 1.5-1.5 3-1.5zm-6.5 23.5-4.5 4.5 4.5 4.5c2.2865 2.3332-1.1668 5.7866-3.5 3.5l-7.5-7.5c-1.6808-1.6469-1.6808-4.3531 0-6l5-5zm14.895-1c1.6808 1.6469 1.6808 4.3531 0 6l-7.5 7.5c-2.3332 2.2866-5.7865-1.1668-3.5-3.5l4.5-4.5-4.5-4.5 6-6z"/>
</svg>
