<?xml version="1.0" encoding="UTF-8" standalone="no"?>
<svg xmlns:rdf="http://www.w3.org/1999/02/22-rdf-syntax-ns#" xmlns="http://www.w3.org/2000/svg" viewBox="0 0 256 256" version="1.1" xmlns:cc="http://creativecommons.org/ns#" xmlns:dc="http://purl.org/dc/elements/1.1/">
 <path d="m31.163 52.148l193.7-0.3867c0.004 60.903 0.007 121.81 0.011 182.71-64.57-0.0521-129.14-0.10417-193.71-0.15625 0.001-60.72 0-121.44 0-182.16z" stroke="#000" stroke-miterlimit="25" stroke-width=".1" fill="#727272"/>
 <path fill="#fff" d="m203.84 54.76c-3.4556-0.34258-5.2753 4.758-2.039 6.3874 2.978 2.1344 7.589-1.7683 5.1504-4.877-0.715-0.96817-1.9178-1.5157-3.1114-1.5104zm-161 1.326c-3.4551-0.34096-5.2725 4.7593-2.0352 6.3865 2.977 2.1314 7.5863-1.7686 5.1486-4.8761-0.715-0.968-1.919-1.516-3.113-1.51zm80.721 0.0625c-3.4546-0.34264-5.2754 4.7563-2.039 6.3854 2.9776 2.1346 7.5901-1.7688 5.1492-4.8766-0.71516-0.96718-1.9173-1.514-3.1102-1.5088z"/>
 <path d="m209.92 24.77c-2.1702-0.0061-4.3701 0.50805-6.3672 1.3574-1.9072 0.81116-3.6974 2.0044-5.1504 3.4824-1.5845 1.6119-2.8826 3.5199-3.7012 5.6816-0.89904 2.3743-1.2783 5.0486-1.1875 7.6289 0.0764 2.1709 0.71597 4.301 1.4473 6.3105 0.73497 2.0196 1.8235 3.861 2.9141 5.6641 0.7465 1.2342 2.4726 3.5078 2.4726 3.5078 2.2755 3.7827 7.526 1.0145 6.3965-0.23438 0 0-1.8348-2.3052-2.6875-3.5059-1.2603-1.7747-2.6839-3.4347-3.584-5.459-0.75992-1.709-1.346-3.5845-1.4648-5.4922-0.14914-2.3939 0.13794-4.9074 0.9668-7.1172 0.79169-2.1106 2.0423-4.1238 3.6797-5.4785 1.6926-1.4004 3.8418-2.1539 5.9297-2.3887 1.968-0.22125 4.0268 0.15657 5.8711 0.96289 1.4157 0.61892 2.7226 1.6437 3.7734 2.8809 0.94959 1.1179 1.6937 2.527 2.1602 3.9551 0.48534 1.486 0.61606 3.0852 0.61523 4.6484-0.00089 1.6944-0.30604 3.3846-0.67187 5.0391-0.41398 1.8722-1.7148 5.4902-1.7148 5.4902l3.0176 0.01367s0.87345-2.348 1.2402-3.5449c0.40466-1.3205 0.80514-2.6482 1.0586-4.0059 0.16519-0.88488 0.22543-1.9164 0.29883-2.6836 0 0 0.022-0.47234 0-0.70703-0.17392-1.8545-0.39434-3.7428-1.0391-5.4902-0.75944-2.0584-1.7882-4.0944-3.2695-5.7129-1.3747-1.502-3.1479-2.675-5.0137-3.4902-1.8729-0.81836-3.9463-1.3067-5.9902-1.3125zm-162.3 0.886c-2.1702-0.0061-4.372 0.50805-6.3691 1.3574-1.9072 0.81116-3.6974 2.0044-5.1504 3.4824-1.5845 1.6119-2.8826 3.5199-3.7012 5.6816-0.89904 2.3743-1.2783 5.0486-1.1875 7.6289 0.07636 2.1709 0.71598 4.301 1.4473 6.3105 0.73497 2.0196 1.7298 3.9018 2.9141 5.6641 1.0729 1.5967 3.7539 4.3828 3.7539 4.3828 2.9317 2.6577 7.8385 0.38948 6.1152-1.1094 0 0-2.6002-2.204-3.6875-3.5059-1.3953-1.6707-2.6839-3.4347-3.584-5.459-0.75992-1.709-1.346-3.5845-1.4648-5.4922-0.14914-2.3939 0.13794-4.9074 0.9668-7.1172 0.79169-2.1106 2.0423-4.1238 3.6797-5.4785 1.6926-1.4004 3.8417-2.1539 5.9297-2.3887 1.968-0.22125 4.0268 0.15657 5.8711 0.96289 1.4157 0.61892 2.7226 1.6437 3.7734 2.8809 0.94959 1.1179 1.6937 2.527 2.1602 3.9551 0.48534 1.486 0.61606 3.0852 0.61523 4.6484-0.00089 1.6944-0.30546 3.3847-0.67188 5.0391-0.37224 1.6807-1.543 4.9297-1.543 4.9297l3.0176 0.01172s0.75523-1.974 1.0684-2.9824c0.40956-1.319 0.80514-2.6482 1.0586-4.0059 0.16519-0.88488 0.22543-1.9164 0.29883-2.6836 0 0 0.022-0.47235 0-0.70703-0.17392-1.8545-0.39434-3.7428-1.0391-5.4902-0.75944-2.0584-1.7882-4.0944-3.2695-5.7129-1.3747-1.502-3.1479-2.675-5.0137-3.4902-2.033-0.715-4.148-1.292-5.988-1.313zm81.15 0.25586c-2.1702-0.0061-4.372 0.50805-6.3691 1.3574-1.9072 0.81116-3.6974 2.0044-5.1504 3.4824-1.5845 1.6119-2.8826 3.5199-3.7012 5.6816-0.89904 2.3743-1.2783 5.0506-1.1875 7.6309 0.0764 2.1709 0.71597 4.2991 1.4473 6.3086 0.73497 2.0196 1.7639 3.8793 2.9141 5.6641 0.95054 1.475 3.2676 4.127 3.2676 4.127 3.4245 3.9872 7.2624 0.83675 6.1328-0.41211 0 0-2.2151-2.5778-3.2188-3.9473-1.2866-1.7557-2.6839-3.4347-3.584-5.459-0.75992-1.709-1.346-3.5845-1.4648-5.4922-0.14914-2.3939 0.13793-4.9074 0.96679-7.1172 0.7917-2.1106 2.0424-4.1219 3.6797-5.4766 1.6926-1.4004 3.8418-2.1559 5.9297-2.3906 1.968-0.22125 4.0268 0.15852 5.8711 0.96484 1.4157 0.61892 2.7226 1.6418 3.7734 2.8789 0.94959 1.1179 1.6937 2.527 2.1602 3.9551 0.48534 1.486 0.61606 3.0852 0.61523 4.6484-0.00089 1.6944-0.30546 3.3847-0.67187 5.0391-0.37224 1.6807-1.3993 4.4988-1.3993 4.4988l3.0176 0.01172s0.6116-1.5431 0.92473-2.5515c0.40956-1.319 0.80514-2.6482 1.0586-4.0059 0.16519-0.88488 0.22543-1.9164 0.29883-2.6836 0 0 0.022-0.47234 0-0.70703-0.17392-1.8545-0.39435-3.7428-1.0391-5.4902-0.75945-2.0584-1.7882-4.0944-3.2695-5.7129-1.3747-1.502-3.1479-2.675-5.0137-3.4902-1.8729-0.81836-3.9444-1.3067-5.9883-1.3125zm-88.037 41.512v159.58h174.86v-159.58z" stroke="#000" stroke-miterlimit="25" stroke-width=".1" fill="#999"/>
 <path fill="#ccc" d="m119.09 89.512v18.285h17.434v-18.285h-17.434zm22.496 0.26367v18.285h17.432v-18.285h-17.432zm44.99 0.26367v18.283h17.432v-18.283h-17.432zm-22.496 0.26172v18.285h17.434v-18.285h-17.434zm-112.48 33.365v18.285h17.434v-18.285h-17.434zm22.496 0.26171v18.285h17.434v-18.285h-17.434zm22.496 0.26368v18.285h17.432v-18.285h-17.432zm22.494 0.26171v18.285h17.434v-18.285h-17.434zm22.496 0.26368v18.285h17.432v-18.285h-17.432zm44.99 0.26172v18.285h17.432v-18.285h-17.432zm-22.496 0.26367v18.285h17.434v-18.285h-17.434zm-112.48 32.971v18.285h17.434v-18.285h-17.434zm22.496 0.26172v18.285h17.434v-18.285h-17.434zm22.496 0.26367v18.285h17.432v-18.285h-17.432zm22.498 0.28v18.285h17.434v-18.285h-17.434zm22.496 0.26367v18.285h17.432v-18.285h-17.432zm44.99 0.26172v18.285h17.432v-18.285h-17.432zm-22.496 0.26367v18.285h17.434v-18.285h-17.434zm-112.48 32.971v18.285h17.434v-18.285h-17.434zm22.496 0.26171v18.285h17.434v-18.285h-17.434zm22.496 0.26368v18.285h17.432v-18.285h-17.432zm22.494 0.26172v18.285h17.434v-18.285h-17.434zm22.496 0.26367v18.285h17.432v-18.285h-17.432zm44.99 0.26172v18.285h17.432v-18.285h-17.432zm-22.496 0.26367v18.285h17.434v-18.285h-17.434z"/>
</svg>
