<?xml version="1.0" encoding="UTF-8" standalone="no"?>
<svg xmlns:rdf="http://www.w3.org/1999/02/22-rdf-syntax-ns#" xmlns="http://www.w3.org/2000/svg" version="1.1" xmlns:cc="http://creativecommons.org/ns#" xmlns:dc="http://purl.org/dc/elements/1.1/" viewBox="0 0 256 256">
 <path stroke-linejoin="round" d="m127.88 214.37c-0.00001 0.47983 0.38462 0.86877 0.85907 0.86877s0.85908-0.38894 0.85907-0.86877c0.00001-0.47982-0.38462-0.86876-0.85907-0.86876s-0.85908 0.38894-0.85907 0.86876zm4.7578-11.333h-4.8131v8.5503h4.8131zm-0.0404 13.694h-4.7052v8.2049h4.7052zm5.6095 0h-4.7052v8.2049h4.7052zm-0.0942-13.69h-4.8131v8.5503h4.8131zm-12.199 11.311c0.00001 0.47982-0.38462 0.86876-0.85907 0.86876s-0.85907-0.38894-0.85906-0.86876c-0.00001-0.47983 0.38461-0.86877 0.85906-0.86877s0.85908 0.38894 0.85907 0.86877zm-4.7578-11.333h4.8131v8.5503h-4.8131zm0.0404 13.694h4.7052v8.2049h-4.7052zm-6.562 9.4286h24.568v0.23608h-24.568zm12.028-24.772h0.23945v24.931h-0.23945zm-11.075 15.339h4.7052v8.2049h-4.7052zm0.0943-13.69h4.8131v8.5503h-4.8131zm-0.99225-1.5097h24.425l0.0874 24.866-24.565-0.009zm4.4995-162.01-0.0389 13.062-15.775-0.01094 0.0445 14.994 15.688 0.01094-0.0871 29.44c5.0686-4.0027 10.136-3.7875 15.205 0l0.0871-29.431 16.412 0.01094-0.0445-14.994-16.323-0.01094 0.0389-13.071h-15.207zm12.064 32.539c0.16583-0.0019 0.60708 15.137 0.6519 15.368 0.0449 0.23167-0.48758 1.5908-1.0667 1.5193-0.57917-0.07153-1.0256-1.3719-1.0075-1.5193 0.0181-0.14742 1.2565-15.367 1.4223-15.368zm0.087 8.8292s-0.67207 6.3661-0.22039 6.4005c0.45168 0.03441 0.22039-6.4005 0.22039-6.4005zm-4.6689 17.227c-10.224 0.045-73.327 57.906-73.291 62.646 0.03575 4.7399 5.3572 7.0528 9.4822 7.1072 4.125 0.0543 57.097-54.427 63.794-54.394 6.6967 0.033 60.357 54.379 63.742 54.394 3.3845 0.0151 9.4938-2.5209 9.4822-7.1072s-62.985-62.691-73.209-62.646zm-0.0148 21.177-58.958 53.03-0.10186 54.069h118.14l-0.1389-54.671z" stroke="#4c4c4c" stroke-linecap="round" stroke-miterlimit="25" stroke-width=".1"/>
</svg>
