<?xml version="1.0" encoding="UTF-8" standalone="no"?>
<svg xmlns:rdf="http://www.w3.org/1999/02/22-rdf-syntax-ns#" xmlns="http://www.w3.org/2000/svg" version="1.1" xmlns:cc="http://creativecommons.org/ns#" xmlns:dc="http://purl.org/dc/elements/1.1/" viewBox="0 0 256 256">
 <path fill="#d40000" d="m105.6 33.263a6.4369 8.4915 63.774 0 0 -4.5488 1.2695l-14.977 7.9941 26.939 47.666 14.975-7.9941a6.4369 8.4915 63.774 0 0 4.3203 -9.6055l-20.6-36.448a6.4369 8.4915 63.774 0 0 -6.1074 -2.8809zm-27.014 13.262c-11.232 5.9957-39.166 42.804-1.1348 110.1 38.031 67.292 88.725 62.132 96.213 58.135l-26.94-47.67c-11.232 5.9957-23.909-16.434-31.832-30.453-7.9231-14.019-20.599-36.452-9.3672-42.447l-26.934-47.665zm63.699 45.762v15h-15v16h15v15h16v-15h15v-16h-15v-15h-16zm30.943 62.396a6.4369 8.4915 63.774 0 0 -4.5469 1.2695l-14.977 7.9941 26.938 47.666 14.977-7.9941a6.4369 8.4915 63.774 0 0 4.3184 -9.6055l-20.6-36.449a6.4369 8.4915 63.774 0 0 -6.1094 -2.8809z"/>
</svg>
