<?xml version="1.0" encoding="UTF-8" standalone="no"?>
<svg xmlns:rdf="http://www.w3.org/1999/02/22-rdf-syntax-ns#" xmlns="http://www.w3.org/2000/svg" version="1.1" xmlns:cc="http://creativecommons.org/ns#" xmlns:xlink="http://www.w3.org/1999/xlink" viewBox="0 0 256 256" xmlns:dc="http://purl.org/dc/elements/1.1/">
 <defs>
  <linearGradient id="a" y2="67.503" gradientUnits="userSpaceOnUse" x2="219.17" gradientTransform="translate(-84.586 49.697)" y1="31.659" x1="326.89">
   <stop stop-color="#fff" offset="0"/>
   <stop stop-color="#cbcbcb" offset="0"/>
   <stop stop-color="#434343" offset=".064694"/>
   <stop stop-color="#0b0b0b" offset="1"/>
  </linearGradient>
  <linearGradient id="b" y2="118.9" gradientUnits="userSpaceOnUse" x2="215.5" y1="118.9" x1="48.439">
   <stop stop-color="#efefef" offset="0"/>
   <stop stop-color="#dadada" offset="1"/>
  </linearGradient>
 </defs>
 <g>
  <rect fill-rule="evenodd" height="197.79" width="167.06" y="20" x="48.439" fill="url(#b)"/>
  <path d="m46.6 17.764-0.133 202.47 172.55-0.01-0.09-202.48zm167.93 198.73-164.57 0.32 0.464-195.17 165.22-1.481zm-130.87-172.28c-1.0268-0.1823-2.4516 5.9134-4.3027 7.0645-4.6528-7.3114-15.732-9.6807-14.471 3.1562 5.2314 1.8214 0.69638-8.7719 6.7891-6.7012 2.4461 7.7209 13.156 8.6996 12.879-0.82812-0.25487-1.8714-0.55228-2.6306-0.89453-2.6914zm31.102 0.0293c-1.0268-0.1823-2.4516 5.9134-4.3027 7.0645-4.6528-7.3114-15.732-9.6807-14.471 3.1562 5.2315 1.8214 0.69638-8.7719 6.7891-6.7012 2.4461 7.7209 13.156 8.6977 12.879-0.83008-0.25488-1.8714-0.55228-2.6287-0.89453-2.6895zm27.707 0.43164c-1.0268-0.1823-2.4516 5.9134-4.3027 7.0645-4.6528-7.3114-15.73-9.6806-14.469 3.1562 5.2314 1.8214 0.69637-8.7719 6.7891-6.7012 2.4461 7.7209 13.156 8.6996 12.879-0.82812-0.25487-1.8714-0.55423-2.6306-0.89648-2.6914zm28.699 0c-1.0268-0.1823-2.4516 5.9134-4.3027 7.0645-4.6528-7.3114-15.732-9.6807-14.471 3.1562 5.2314 1.8214 0.69833-8.7719 6.791-6.7012 2.4461 7.7209 13.154 8.6996 12.877-0.82812-0.25488-1.8714-0.55228-2.6306-0.89453-2.6914zm30.348 0.43359c-1.0268-0.18229-2.4516 5.9115-4.3027 7.0625-4.6528-7.3114-15.732-9.6787-14.471 3.1582 5.2314 1.8214 0.69639-8.7719 6.7891-6.7012 2.4461 7.7209 13.156 8.6977 12.879-0.83008-0.25487-1.8714-0.55227-2.6287-0.89453-2.6895zm-119.42 30.267c-1.0268-0.1823-2.4516 5.9134-4.3027 7.0645-4.6527-7.3114-15.732-9.6806-14.471 3.1562 5.2314 1.8214 0.69638-8.7719 6.7891-6.7012 2.4461 7.7209 13.156 8.6996 12.879-0.82812-0.25487-1.8714-0.55228-2.6306-0.89453-2.6914zm88.59 1.0234c-1.0268-0.1823-2.4516 5.9115-4.3027 7.0625-4.6528-7.3114-15.732-9.6787-14.471 3.1582 5.2314 1.8214 0.69833-8.7719 6.791-6.7012 2.4461 7.7209 13.154 8.6977 12.877-0.83008-0.25488-1.8714-0.55227-2.6287-0.89453-2.6895zm29.596 0.19336c-1.0268-0.1823-2.4516 5.9115-4.3027 7.0625-4.6528-7.3114-15.732-9.6787-14.471 3.1582 5.2314 1.8214 0.69639-8.7719 6.7891-6.7012 2.4461 7.7209 13.156 8.6977 12.879-0.83008-0.25487-1.8714-0.55227-2.6287-0.89453-2.6895zm-87.51 0.08008c-1.0268-0.1823-2.4516 5.9134-4.3027 7.0645-4.6528-7.3114-15.73-9.6787-14.469 3.1582 5.2314 1.8214 0.69637-8.7719 6.7891-6.7012 2.4461 7.7209 13.156 8.6977 12.879-0.83008-0.25488-1.8714-0.55422-2.6306-0.89648-2.6914zm28.369 0.43359c-1.0268-0.1823-2.4516 5.9134-4.3027 7.0645-4.6528-7.3114-15.732-9.6806-14.471 3.1562 5.2314 1.8214 0.69834-8.7719 6.791-6.7012 2.4461 7.7209 13.154 8.6977 12.877-0.83008-0.25488-1.8714-0.55227-2.6287-0.89453-2.6895zm0.23828 33.23c-1.0268-0.18232-2.4516 5.9115-4.3027 7.0625-4.6528-7.3114-15.73-9.6787-14.469 3.1582 5.2315 1.8215 0.69637-8.7719 6.7891-6.7012 2.4461 7.7209 13.156 8.6977 12.879-0.83008-0.25487-1.8714-0.55422-2.6287-0.89648-2.6894zm-58.295 0.49805c-1.0268-0.18232-2.4516 5.9115-4.3027 7.0625-4.6527-7.3114-15.73-9.6787-14.469 3.1582 5.2315 1.8214 0.69636-8.7719 6.7891-6.7012 2.4461 7.7209 13.154 8.6977 12.877-0.83008-0.25487-1.8714-0.55228-2.6287-0.89453-2.6894zm31.668 0c-1.0268-0.18232-2.4516 5.9115-4.3027 7.0625-4.6528-7.3114-15.732-9.6787-14.471 3.1582 5.2315 1.8214 0.69637-8.7719 6.7891-6.7012 2.4461 7.7209 13.156 8.6977 12.879-0.83008-0.25488-1.8714-0.55228-2.6287-0.89453-2.6894z" fill-rule="evenodd"/>
  <path d="m210.91 21.868s3.8438 5.6465 4.298 5.9421c0.45417 0.29557 8.4586 0.38242 8.4586 0.38242l-0.68363 0.76505s-8.1828 0.06942-8.6036-0.22372c-0.42078-0.29309-4.1517-6.076-4.1517-6.076zm-0.0417 0.07223s2.954-3.5337 4.2485-3.8987c0.8924-0.25165 2.3797-0.0097 3.7854 0.50226 0.63328 0.23063 1.25 0.51604 1.7883 0.83578 1.7332 1.0295 3.8464 2.9262 4.4253 4.2965 0.57893 1.3703-1.4901 4.5405-1.4901 4.5405s-7.6225 0.11928-8.4268-0.38123c-0.80429-0.50049-4.3306-5.8951-4.3306-5.8951zm-0.5625 0.66011-63.953 77.828-0.008-0.0137-4.0742 9.5606 1.0147 0.29297 1.249 1.1719 9.8945-4.3086-0.041-0.0215 68.668-78.227-8.6523-0.30664 0.041-0.04882-4.1387-5.9277zm-68.08 87.46-1.2308 2.9071 0.0449-0.0527 3.4037-1.4098-1.1848-1.1354zm-1.1878 2.8602-0.0566 0.0664 0.0293-0.0117 0.01-0.0137z" fill="url(#a)"/>
 </g>
</svg>
