<?xml version="1.0" encoding="UTF-8" standalone="no"?>
<svg xmlns:rdf="http://www.w3.org/1999/02/22-rdf-syntax-ns#" xmlns="http://www.w3.org/2000/svg" version="1.1" xmlns:cc="http://creativecommons.org/ns#" xmlns:dc="http://purl.org/dc/elements/1.1/" viewBox="0 0 256 256">
 <path d="m126.71 21.428a16.622 15.801 0 0 0 -16.622 15.803 16.622 15.801 0 0 0 16.622 15.801 16.622 15.801 0 0 0 16.622 -15.801 16.622 15.801 0 0 0 -16.622 -15.803zm-10.134 34.757a21.609 20.542 0 0 0 -21.448 14.229l-15.293 48.035a6.9813 6.6366 0 0 0 13.299 3.7937l13.63-42.348h3.3233l-23.271 74.267h21.608v53.724a8.3111 7.9008 0 0 0 16.622 0v-53.724h3.3252v53.724a8.3111 7.9008 0 0 0 16.622 0v-53.724h21.608l-23.271-74.267h3.3233l13.63 42.348a6.9813 6.6366 0 0 0 13.299 -3.7937l-15.29-48.036a21.609 20.542 0 0 0 -21.61 -14.222h-19.947a21.609 20.542 0 0 0 -0.16018 -0.0071z"/>
</svg>
