<?xml version="1.0" encoding="UTF-8" standalone="no"?>
<svg xmlns:rdf="http://www.w3.org/1999/02/22-rdf-syntax-ns#" xmlns="http://www.w3.org/2000/svg" version="1.1" xmlns:cc="http://creativecommons.org/ns#" xmlns:xlink="http://www.w3.org/1999/xlink" viewBox="0 0 256 256" xmlns:dc="http://purl.org/dc/elements/1.1/">
 <defs>
  <radialGradient id="a" gradientUnits="userSpaceOnUse" cy="115.71" cx="138.42" gradientTransform="matrix(1.9246 .012027 -.011440 1.787 -124.32 -92.465)" r="116.2">
   <stop offset="0"/>
   <stop offset=".23699"/>
   <stop stop-color="#808080" offset=".24158"/>
   <stop stop-color="#808080" offset="1"/>
  </radialGradient>
 </defs>
 <path d="m226.06 14.205a14.723 15.123 0 0 0 -9.9622 3.905l-52.07 53.482a53.548 49.881 0 0 0 -23.29 -5.033 53.548 49.881 0 0 0 -15.91 2.308l-91.734-25.125-20.795 21.36 76.166 40.678a53.548 49.881 0 0 0 -1.2726 10.659 53.548 49.881 0 0 0 7.8853 25.971l-20.391 20.945-33.273-4.271-16.638 17.088 37.432 21.359 20.796 38.448 16.638-17.088-4.1596-34.176 22.554-23.166a53.548 49.881 0 0 0 22.704 4.7698 53.548 49.881 0 0 0 8.3249 -0.63913l42.078 83.114 20.796-21.359-23.142-89.137a53.548 49.881 0 0 0 5.4898 -21.859 53.548 49.881 0 0 0 -7.559 -25.442l50.166-51.527a14.723 15.123 0 0 0 -10.834 -25.266zm-61.937 68.031 0.0268 4.1288-19.94 30.272a3.0994 2.647 0 0 1 0.11325 0.71309 3.0994 2.647 0 0 1 -2.3418 2.5622l0.15932 32.021-0.86378 1.521-0.99814-1.521-0.15932-32.114a3.0994 2.647 0 0 1 -1.9944 -2.4693 3.0994 2.647 0 0 1 3.0002 -2.6457l19.796-30.21 3.2018-2.2588z" fill="url(#a)"/>
</svg>
