<?xml version="1.0" encoding="UTF-8" standalone="no"?>
<svg xmlns:rdf="http://www.w3.org/1999/02/22-rdf-syntax-ns#" xmlns="http://www.w3.org/2000/svg" version="1.1" xmlns:cc="http://creativecommons.org/ns#" xmlns:xlink="http://www.w3.org/1999/xlink" viewBox="0 0 256 256" xmlns:dc="http://purl.org/dc/elements/1.1/">
 <defs>
  <radialGradient id="a" gradientUnits="userSpaceOnUse" cy="115.71" cx="138.42" gradientTransform="matrix(1.9583 .012386 -.011640 1.8403 -132.01 -99.768)" r="116.2">
   <stop offset="0"/>
   <stop offset=".23699"/>
   <stop stop-color="#808080" offset=".24158"/>
   <stop stop-color="#808080" offset="1"/>
  </radialGradient>
 </defs>
 <path fill="url(#a)" d="m224.51 10.086a14.981 15.574 0 0 0 -10.14 4.021l-52.98 55.079a54.486 51.37 0 0 0 -23.7 -5.184 54.486 51.37 0 0 0 -16.19 2.377l-93.34-25.875-21.16 21.998 77.5 41.888a54.486 51.37 0 0 0 -1.295 10.98 54.486 51.37 0 0 0 8.024 26.75l-20.749 21.57-33.855-4.4-16.93 17.6 38.088 21.99 21.16 39.6 16.93-17.6-4.232-35.19 22.949-23.86a54.486 51.37 0 0 0 23.1 4.91 54.486 51.37 0 0 0 8.47 -0.66l42.82 85.6 21.16-22-23.55-91.8a54.486 51.37 0 0 0 5.59 -22.51 54.486 51.37 0 0 0 -7.7 -26.2l51.05-53.065a14.981 15.574 0 0 0 -11.02 -26.019zm-63.03 70.06l0.03 4.252-20.29 31.172a3.1536 2.726 0 0 1 0.12 0.74 3.1536 2.726 0 0 1 -2.38 2.64l0.16 32.97-0.88 1.57-1.02-1.57-0.16-33.07a3.1536 2.726 0 0 1 -2.03 -2.54 3.1536 2.726 0 0 1 3.05 -2.73l20.15-31.107 3.25-2.327z"/>
 <path d="m74.061 125.68s3.4168 8.8687 5.9511 12.85c4.1374 6.502 8.9192 12.813 14.889 17.683 5.2257 4.2631 11.454 7.3117 17.777 9.6534 7.9927 2.9614 16.476 5.2019 24.997 5.3794 9.4072 0.20241 19.027-1.4324 27.82-4.7862 7.5853-2.8898 15.164-6.9177 20.663-12.892 3.8999-4.2382 5.8004-10.005 7.9013-15.369 1.9803-5.0556 3.6107-10.317 4.3727-15.693 0.7-4.9404 0.80603-10.022 0.14648-14.967-0.92584-6.9426-2.379-14.06-5.7043-20.222-3.2422-6.01-8.0508-11.259-13.423-15.47-5.7799-4.5324-12.671-7.6355-19.606-10.052-5.9958-2.0879-12.347-3.2635-18.68-3.7212-5.7119-0.40482-11.551-0.26469-17.157 0.90306-5.3579 1.121-10.514 3.2604-15.368 5.7951-5.9172 3.0906-11.53 6.8913-16.508 11.34-2.9668 2.6516-5.397 5.8636-7.8182 9.0212-3.4172 4.4577-9.4323 13.962-9.4323 13.962h9.9894l-18.542 22.385-14.157-22.385h7.959s5.7087-13.046 9.7829-18.826c3.2215-4.5698 7.135-8.6943 11.418-12.286 5.305-4.4499 11.271-8.1415 17.444-11.276 6.773-3.4394 13.89-6.393 21.28-8.1509 6.8963-1.6411 14.076-2.4865 21.157-2.1533 7.6981 0.35811 15.378 2.021 22.681 4.4857 6.9325 2.3386 13.703 5.4806 19.712 9.6565 7.2434 5.0322 14.264 10.899 19.201 18.211 3.794 5.6176 5.8809 12.327 7.4708 18.919 1.5439 6.4008 2.473 13.097 1.9189 19.659-0.90352 10.697-3.5071 21.55-8.4606 31.073-2.9888 5.7453-7.6846 10.522-12.419 14.939-4.7234 4.4063-9.9079 8.5152-15.724 11.324-7.5516 3.6465-15.863 6.0131-24.207 6.8446-12.019 1.1989-24.482 0.42039-36.128-2.7824-9.6456-2.6547-18.718-7.5623-26.891-13.336-8.8779-6.2731-17.142-13.821-23.418-22.699-3.6535-5.1677-7.9133-17.261-7.9133-17.261z"/>
</svg>
