<?xml version="1.0" encoding="UTF-8" standalone="no"?>
<svg xmlns:rdf="http://www.w3.org/1999/02/22-rdf-syntax-ns#" xmlns="http://www.w3.org/2000/svg" version="1.1" xmlns:cc="http://creativecommons.org/ns#" xmlns:dc="http://purl.org/dc/elements/1.1/" viewBox="0 0 256 256">
 <path d="m128.73 25.776c-10.881 1.3627-15.751 13.051-19.833 21.83-10.42 25.489-13.022 53.469-11.057 80.755 11.299 9.7046 22.4 19.75 34.73 28.147 9.4736-9.3503 18.373-19.573 25.749-30.591 2.708-15.373 0.0347-31.134-1.4011-46.516-2.81-16.98-5.3356-35.778-17.431-48.967-2.8712-2.7673-6.7024-4.7072-10.756-4.6578zm86.978 59.94c-13.97 2.299-24.726 12.837-35.256 21.511-15.179 14.184-30.342 29.077-40.96 47.091-9.9588 20.5-9.497 44.944-2.9991 66.4 3.0191 8.428 12.079-6.0997 16.167-9.6141 21.793-27.598 29.337-63.025 47.547-92.666 4.1312-9.9488 16.896-14.612 24.449-13.447 0.93683-7.062 1.3565-19.892-8.9478-19.275zm-163.05 24.924c-11.603-0.596-18.471 10.963-19.091 21.234-0.58815 4.867-1.4077 17.182 1.3641 6.4987 2.1099-9.5615 13.249-17.301 21.651-9.3995 15.743 12.702 24.995 31.336 35.013 48.494 7.6863 13.199 13.64 27.487 22.532 39.931 5.0021 5.2823 16.06 11.846 21.03 8.7368-4.7875-18.275-9.7728-37.663-5.8716-56.566 3.2412-5.7844 4.5874-9.7132-1.7061-13.643-18.426-17.22-38.333-34.149-62.257-43.054-4.0822-1.3354-8.3476-2.2991-12.665-2.2332z"/>
</svg>
