<?xml version="1.0" encoding="UTF-8" standalone="no"?>
<svg xmlns:rdf="http://www.w3.org/1999/02/22-rdf-syntax-ns#" xmlns="http://www.w3.org/2000/svg" version="1.1" xmlns:cc="http://creativecommons.org/ns#" xmlns:dc="http://purl.org/dc/elements/1.1/" viewBox="0 0 256 256">
 <g transform="matrix(4.1185 0 0 4.1457 -17.635 -18.175)">
  <rect y="12" x="33.5" height="48" width="5"/>
  <circle cy="15" cx="19.5" r="4"/>
  <path d="m19 44.5v14a2 2 0 0 1 -4 0v-14h-5l5.5-18.5h-1l-3 10.5a1.821 1.821 0 0 1 -3.5 -1l3.5-12a5.7 4.6 0 0 1 5.5 -3.5h5a5.7 4.6 0 0 1 5.5 3.5l3.5 12a1.821 1.821 0 0 1 -3.5 1l-3-10.5h-1l5.5 18.5h-5v14a2 2 0 0 1 -4 0v-14z"/>
  <circle cy="15" cx="52.5" r="4"/>
  <path d="m43 25v13a1.75 1.75 0 0 0 3.5 0v-11.5h1v31.75a2.25 2.25 0 0 0 4.5 0v-18.75h1v18.75a2.25 2.25 0 0 0 4.5 0v-31.75h1v11.5a1.75 1.75 0 0 0 3.5 0v-13a5 5 0 0 0 -5 -5h-9a5 5 0 0 0 -5 5z"/>
 </g>
</svg>
