<?xml version="1.0" encoding="UTF-8" standalone="no"?>
<svg xmlns:rdf="http://www.w3.org/1999/02/22-rdf-syntax-ns#" xmlns="http://www.w3.org/2000/svg" version="1.1" xmlns:cc="http://creativecommons.org/ns#" xmlns:dc="http://purl.org/dc/elements/1.1/" viewBox="0 0 256 256">
 <path d="m125.1 34.608c-30.176 56.292-60.332 112.59-90.493 168.89h185.92c-31.81-56.3-63.62-112.6-95.43-168.89zm-0.0322 4.8554c30.035 53.877 60.071 107.75 90.106 161.63-58.832-0.0503-117.66-0.10057-176.49-0.15085m89.154-105.24c12.384 1.3034 26.171 8.0854 28.968 21.299 1.2154 6.236 9.9416 9.7291 10.448 17.486 1.8502 8.208 0.52698 17.146-2.7285 24.787 0.59906-9.1887 2.0415-19.833-3.8829-27.674-8.2414-4.8491-18.134 3.5302-25.549 7.3475-4.1654 2.6675-1.2035-5.5265-5.2689-5.2382 6.1124-5.1337 14.479-9.8272 19.072-17.239 1.8526-8.8448-8.0905-13.889-14.635-17.423-1.0554-1.0242-8.4862-3.0288-6.4237-3.3446zm-7.0976 0.20516c-3.0057 2.4325-14.153 6.0059-18.248 11.549-8.3027 7.6828 2.3878 15.958 8.4539 20.608 3.4368 2.9441 11.962 5.7578 4.7335 8.6791 1.0321 7.9157-9.1724-3.8881-13.161-3.7138-7.9157-5.8721-18.569-2.3972-18.501 8.2327-1.1715 5.081 0.24796 15.158-0.46648 17.405-4.2932-11.861-5.1505-27.368 5.2106-36.393 4.8633-4.0467 3.7719-13.38 10.307-17.526 5.8931-5.3525 13.947-7.7185 21.672-8.8407zm3.8555 23.957c3.7408-0.0792 17.135 3.1396 12.354 7.8751-6.7609-8.8343-19.497-3.4001-25.503-0.94462-2.7738-3.5109 10.406-7.4476 13.149-6.9305zm-20.117 16.332c6.902-1.0217-0.68688 10.696 4.4402 14.437-0.12067 5.3191 15.729 10.327 7.6736 11.317-9.7029-4.1264-14.83-15.701-12.114-25.754zm37.664 0.86393c7.4756 0.8397 1.6496 15.02-1.7997 18.996-1.0392 3.8116-13.411 8.8268-8.9481 3.499 8.5522-3.5261 13.026-13.691 10.748-22.495zm-15.475 13.211c3.188 6.512 0.51113 16.571 4.3438 23.896 3.1266 9.4725 15.286 3.6313 20.928-0.30252 3.6748-2.1738 12.182-9.6898 5.1566-1.8128-7.2917 9.0025-20.317 16.147-31.665 10.452-5.9852 1.9124-14.36 3.6506-20.96 0.088-5.3889-2.038-15.001-11.042-15.134-13.33 7.0353 4.933 14.892 11.351 24.046 10.084 8.3471-5.0191 6.346-17.881 7.0511-26.489-0.0172-6.4335 4.2205 3.5399 6.234-2.586z"/>
</svg>
