<?xml version="1.0" encoding="UTF-8" standalone="no"?>
<svg xmlns:rdf="http://www.w3.org/1999/02/22-rdf-syntax-ns#" xmlns="http://www.w3.org/2000/svg" version="1.1" xmlns:cc="http://creativecommons.org/ns#" xmlns:dc="http://purl.org/dc/elements/1.1/" viewBox="0 0 256 256">
 <path d="m117.05 65.521v32l-16-16v15l22 22 22-22v-15l-16 16v-32zm105.04 6.7246c-12.613 0.000341-22.839 10.018-22.84 22.377-0.0001 12.359 10.226 22.379 22.84 22.379 12.614-0.00034 22.84-10.02 22.84-22.379-0.001-12.359-10.226-22.377-22.84-22.377zm0.23047 4.8926h2.5859v21.561h-1.7246-0.86133-13.607v-2.5098h13.607zm-211.62 36.111c-0.63577 0.00089-1.205 0.11287-1.6992 0.35156l15.912 29.617 16.535 28.543 42.52-4.2168-28.037 13.896 8.9277-1.2461c13.558-4.85 39.436-12.23 39.436-12.23l-0.13476 2.6543c-1.2676 0.15999-2.9376 1.5616-2.9707 3.1992-0.0378 1.8246 1.4909 3.3358 3.4141 3.375 1.923 0.0393 3.512-1.408 3.5488-3.2324 0.0338-1.6318-1.1846-3.0128-2.8184-3.3145l0.19726-3.0449c3.6065-1.0627 7.2011-2.1436 10.777-3.2695l0.0176-0.002-0.10351 4.9883c-1.2283 0.36359-2.0809 1.4791-2.1094 2.7598-0.0343 1.628 1.2586 2.9752 2.8867 3.0078 1.6273 0.0332 2.9732-1.2594 3.0059-2.8867 0.0255-1.2825-0.78178-2.4342-1.9961-2.8477l0.10742-5.1992 82.975-8.2305s2.3227-0.25872 5.7168-0.78906l-0.082 3.9473c-1.2303 0.36425-2.0834 1.4828-2.1094 2.7656-0.0332 1.6265 1.2582 2.9722 2.8848 3.0059 1.6266 0.0332 2.9722-1.2582 3.0059-2.8848 0.0255-1.2825-0.78178-2.4342-1.9961-2.8476l0.0879-4.2871c15.534-2.5924 46.35-9.9995 1.3301-23.457-12.716-3.8012-152.43 11.828-159.54 9.166-5.8081-2.1732-30.159-27.308-39.695-27.295zm-6.6699 70.896v8.0801h246.48v-8.0801z"/>
</svg>
