<?xml version="1.0" encoding="UTF-8" standalone="no"?>
<svg xmlns:rdf="http://www.w3.org/1999/02/22-rdf-syntax-ns#" xmlns="http://www.w3.org/2000/svg" version="1.1" xmlns:cc="http://creativecommons.org/ns#" xmlns:dc="http://purl.org/dc/elements/1.1/" viewBox="0 0 256 256">
 <path d="m93.228 32.841c-1.3196 4.0741-1.2038 8.7294-5.2855 11.082-7.7205-1.6661-15.778-2.3029-24.845 0.14615-3.9481-2.4574-4.4581-6.4512-5.6497-10.928-1.3046 5.9521 0.59408 11.19 3.8228 15.544-0.21803 0.20256-6.4162 0-6.4162 0l-3.7621 12.774 7.6949 51.09c-0.57989-5.4103 2.3136-14.644 5.8186-16.336-5.3088-15.628-4.8057-33.534 0.16316-43.204 5.9947-2.3457 12.704-3.4942 23.79-0.10915 3.8343 9.5867 5.3694 27.421 0.52362 44.049 2.9491 2.711 5.7533 12.932 5.0901 15.599l8.146-51.091-4.632-12.774s-6.8804 0.25479-7.0745 0c2.5083-5.1266 3.3021-11.003 2.6143-15.844zm103.21 4.8027c-1.9361 0.11542-1.3238 2.6598-1.9086 2.8176-0.58472 0.15776-1.2075-2.6508-3.0848-1.6502s1.9358 5.204 1.0283 7.1318c-0.90754 1.9279-8.0568 20.814-15.092 24.766-7.0351 3.9526-15.797 5.1468-20.738 0.99716-4.9404-4.1496-10.773-14.681-11.962-14.9-1.5595 3.0988-2.9625 5.2022 0.21249 9.2353l-6.4333-1.1341c-0.0661 4.3244 1.9017 7.1843 4.2762 9.7515 0 0 0.79479 8.3072 4.3919 14.032 0.83474 1.3286 3.8018 3.1213 6.3346 4.9581 6.2545 3.1762 30.259-6.8155 30.311-14.861l-0.0455 3.1265c-0.003 6.9815-19.733 14.445-28.896 13.514 0.92678 2.1952 1.0306 5.3041 6.4371 7.0911 9.2049 3.0425 28.625 4.217 38.044-5.2226 9.4185-9.4396 8.2697-36.832 8.2697-36.832s8.6891 0.45172 8.818 0.2035c0.12889-0.24822-6.6932-8.9467-6.6932-8.9467s-1.7011-3.7503-2.7585-4.2587c-1.0574-0.50844 2.8115-5.8594 1.7757-6.8321-1.0358-0.97271-2.5781 0.88658-3.4585 0.3848-0.88044-0.50178-0.7187-3.0451-2.4302-3.2523-1.7116-0.2072-2.0143 2.1599-3.117 2.1442-2.3379-0.68494-1.363-2.292-3.2821-2.2644zm-87.856 7.9477c-1.6392 0.34828-6.9234 3.7916-10.214 2.9933l4.6708 12.525c2.6657-4.1196 7.5404-1.8404 10.009-2.8953 2.469-1.0549 6.3038-0.61735 7.7271-6.5084 0 0-10.554-6.4626-12.193-6.1143zm-64.695 0.49211c-1.6546-0.27061-11.874 6.6804-11.874 6.6804 1.7155 5.817 5.5233 5.1993 8.0421 6.1365 2.5188 0.93724 7.4562-1.6396 10.324 2.3495l4.0049-12.658c-3.2472 0.95244-8.8424-2.238-10.497-2.5086zm74.786 6.6804c-4.6802 3.8586-8.6866 4.5813-14.813 4.3772l-2.7793-6.6749c7.1144-4.3028 11.179-3.2582 17.592 2.2977zm-67.341-1.354-1.548 5.927c-5.701 0.67-10.204-0.781-15.38-3.516 7.389-5.096 8.487-8.683 16.928-2.411zm154.7-1.0009c1.7384 0.06054 1.7401 2.8915 0 2.8324-1.7401-0.05915-1.7384-2.8929 0-2.8324zm-110.08 23.523c2.8483 0.3422 2.8483 7.228 0 6.8858-2.8483-0.34219-2.8483-7.228 0-6.8858zm-38.704 0.14985c2.7841 0.34124 2.7864 7.1237 0 6.7859-2.7864-0.33778-2.7841-7.1271 0-6.7859zm10.391 23.301c-4.8002-0.11801-10.242 13.423-7.6247 15.966 2.6169 2.5423 29.917 2.6456 32.356 0s-2.5439-16.093-7.2794-15.966c-4.7355 0.12738-12.652 0.11801-17.452 0zm3.3295 5.1671 0.37374 1.826c-2.0413 0.0999-1.9953 1.0526-1.3033 2.8731-1.8931-2.3644-2.9738-4.2407 0.92961-4.6991zm9.8633 0.013c3.3502 0.62973 3.3772 2.1786 0.92961 4.6991 0.51488-1.8192 0.91637-2.7209-1.3033-2.8731zm93.037 2.3255v8.0069h2.7376v-8.0069c-1.1451 0.82503-1.9506 0.44684-2.7376 0zm5.405 7.0245c-0.68355-0.021-1.4909 0.0363-2.3809 0.12765 0 0.00002 0.28661 0.54168 0.61468 0.70116 0.32191 0.23785 2.7134-0.55461 3.9575 0.14985-0.25683-0.68918-1.052-0.94348-2.1912-0.97866zm-1.1535 0.94352c-1.4369 0.12421-1.8587 0.52054-4.2402 0.24044 0 0 0.0962 0.86167 1.347 1.7224 0.53388 0.36368 2.7839-1.4349 7.6532 0.68265-1.5497-1.2955-3.1004-2.5587-4.76-2.6455zm-4.4071 0.73445c-1.5566 0.66802-2.7062 0.46739-2.8723 1.8482 0.47643-1.0635 3.1796-1.3228 3.1796-1.3228-0.24655-0.0984-0.40198-0.24675-0.30734-0.52541zm-78.808 15.455c-4.665-0.22312-8.514 6.3761-10.664 6.155-3.1634-0.47739-5.4587-3.6858-8.4917-4.2144-4.5699-0.83431-9.2373 3.426-14.005 3.118-2.6864-0.50971-5.2278-3.184-8.5448-3.4299-2.7419-0.16348-5.6414 2.481-5.7806 5.2578-0.11779 2.9715 5.7914 5.2613 5.1356 7.0726-0.89822 2.0252-4.4705 3.1465-5.9476 5.1764-1.8557 2.4556 0.62708 6.5089 3.3105 6.6415-8.6397 3.493-12.627 22.088-8.1331 25.819 4.9022 3.4515 13.056-5.6185 13.056-5.6185 0.000001 0-1.844 7.4733 1.0719 14.166 2.9159 6.6923 10.632 20.654 20.533 20.955 9.9006 0.30136 17.21-12.434 20.328-18.959 3.1178-6.5252 1.2047-14.756 1.2047-14.756s10.331 8.7867 15.198 4.5751c5.1047-9.6494-2.6394-24.124-12.491-26.955 0.94482-2.5157 4.3149-3.095 5.5264-5.4187 0.86136-1.6-4.4554-5.3359-5.9115-8.2344-1.0786-1.9735-0.0734-4.0783 0.6678-6.5861 0.33956-3.0388-3.5081-4.7376-6.0633-4.7645zm-0.0076 0.23866c2.5349 0.11234 6.0133 1.6408 5.8243 4.5233-0.78078 2.4375-1.5959 4.6773-0.64314 6.6915 1.4113 3.2673 6.5395 6.1762 5.8888 8.1308-1.2197 2.3038-4.6359 2.8137-5.5169 5.3503-15.165 0.44495-38.704-3.3989-49.931 0.58645-2.8389 0.24939-5.5116-3.8073-3.707-6.2531 1.7539-2.2209 5.1414-3.2254 5.9893-5.304 0.63091-1.7326-5.4001-4.383-5.1356-7.0819 0.39742-3.4207 3.5654-5.1427 5.5283-5.0154 3.1435 0.37191 5.8132 2.991 8.5239 3.4299 4.7284 0.38861 9.3658-3.7074 13.993-3.1191 3.2883 0.87397 5.3093 3.8199 8.5676 4.2125 2.1297 0.23335 6.0174-6.1735 10.618-6.1513zm45.481 1.8907c-0.36775 2.1422 2.1059 6.858 2.5194 8.8228-1.9968-1.4338-4.4383-5.7178-4.1415-8.4065-1.9834 0.56997-3.7775 1.3334-5.2172 2.0905 0.40295 2.1897 3.872 5.8295 4.7732 7.5444-2.2661-0.77974-5.6878-4.0821-6.2189-6.7285-8.5565 11.077-4.1915 32.557 13.094 32.875-4.3697-5.6197-8.9271-19.694-3.8949-22.539 5.0322-2.8452 10.808-5.9916 20.561 6.2827-0.51116 0.26096-0.9848 0.58217-1.4229 0.95647-3.6939-2.1213-9.2813-6.5681-12.777-2.1534-0.0158 0.47475 0.94006 1.1092 1.973 2.7788 0.90956 1.47 6.0338 4.9135 7.304 5.7554-1.8204 7.3481-0.23261 18.366 3.69 27.528 0 0 3.6518 24.022 14.464 24.374 10.812 0.35222 13.79-24.257 13.79-24.257 4.0401-7.5585 5.7302-18.711 3.9157-26.489 0.65037-0.42727 6.6106-4.3672 7.5886-5.9478 1.033-1.6696 1.9889-2.304 1.973-2.7787-4.0426-3.7661-8.4323-0.69297-12.764 2.146-0.20874-0.21849-0.42605-0.4227-0.65263-0.6142 9.91-12.741 15.343-10.97 20.857-6.6638 5.514 4.3067 0.17359 16.634-3.893 22.539 14.546-0.006 23.819-23.994 14.082-32.176-1.9971 0.51361-4.9421 5.1548-6.4503 6.4769 0.27337-2.3688 2.528-6.294 4.8226-7.5444-1.4503-0.82962-3.3753-1.7258-5.5663-2.3976-1.7058 1.256-3.1112 6.4366-4.1377 8.1438-0.43238-2.3121 0.52964-6.6809 2.3012-8.6414-2.2362-0.48648-4.347-0.58051-6.4428-0.52356-0.83343 2.1298-0.33524 6.8939-0.63745 8.7432-1.201-1.8956-1.9054-6.0717-1.1307-8.6229-2.3446 0.14669-4.9245 0.69794-6.8032 1.6484 0.53455 2.2778 3.2598 5.8397 3.9385 7.5129-2.0085-0.93416-4.7893-4.1045-5.4259-6.7008-1.3329 0.77471-2.8565 1.7766-4.4488 2.923 1.017 2.1535 3.8693 5.0319 4.7068 6.5047-2.0011-0.61108-4.9473-3.1161-6.0728-5.4909-3.7217 2.8178-7.6373 6.3532-10.421 9.9198-1.7358-0.29902-3.2677-0.35194-4.8738-0.3108-3.1216-4.2053-7.9342-8.4324-12.237-11.533-2.883 1.29-4.2388 4.4534-6.4422 6.4862 0.27531-2.3856 2.5624-6.3532 4.8738-7.574-1.8784-1.2712-3.6074-2.3067-4.9421-2.9378-1.6726 1.2999-2.9347 6.5317-3.9138 8.2715-0.51473-2.3788 0.4009-7.0088 2.2406-8.9134-2.1174-0.40861-4.0354-0.70384-5.7788-0.81401-0.98163 1.9808-0.40358 7.0747-0.70955 9.004-1.2823-2.0026-2.022-6.572-1.0207-9.0596-1.7245-0.006-3.5739 0.2079-5.0334 0.49021zm12.656 18.158c0.74266 0.39667 5.791 3.8392 6.143 4.0793-0.69847 0.92398-1.2692 2.025-1.7169 3.2727-0.27291-0.13903-6.0373-3.0848-6.2454-4.1644-0.21314-1.1054-0.9979-2.3588-0.9979-2.3588 0.83437-0.83783 1.7606-0.97422 2.8173-0.82881zm46.913 1.5577s-0.78477 1.2515-0.99792 2.3569-6.3365 4.2125-6.3365 4.2125l-1.8213-3.1876s5.5698-3.802 6.3384-4.2125c1.0613-0.37593 2.2291 0.3958 2.8173 0.83066zm-39.112 21.347c0.56288 3.4151 2.0829 6.7671 1.254 10.24-3.3396-3.0659-4.444-7.0249-1.254-10.24zm28.135 0.17946c3.3777 3.383 1.2181 8.1739-1.1231 10.257-0.76606-3.2069 0.33253-6.703 1.1231-10.257zm-122.6 3.6c3.2727 0.12943 3.2723 4.9193 0 4.7897-3.2723-0.12964-3.2727-4.9191 0-4.7897zm17.452 0c3.2719 0.12859 3.271 4.9203 0 4.7897-3.271-0.13061-3.2719-4.9183 0-4.7897zm86.793 27.856c1.7482 0.38863 2.0509 1.8728 1.827 3.1284-0.4945 0.43862-1.4329 0.13967-2.0964-0.66786-0.71067-1.3484-0.73081-1.8652 0.2694-2.4605zm8.0003 0.1258c1.1953 0.26193 0.84356 1.7959 0.41737 2.4328-0.59963 0.86102-1.5129 1.2371-2.0394 0.8399-0.65923-1.6683 0.19807-2.6617 1.6221-3.2727zm-11.762 2.8416c0.33227 1.7546-0.0747 2.7508-0.96754 4.2106 0.5101-0.19072 1.4348-0.18435 1.8839-0.67156 2.2352 0.17403 1.4832 3.2828 1.4475 4.7878s2.214 4.4586 2.214 4.4586-0.76772-1.5343-0.81198-2.7806c-0.0369-1.0392-0.0953-1.7217 0.38892-1.2617 1.3262 1.2599 1.3044 2.4744 1.863 3.7074 0.61712 1.3261 1.9389 2.6574 3.1739 3.8684-0.22387-0.4639-0.68972-1.2372-0.25612-1.9425 0.46617-0.54182 0.96141-2.7849 0.31873-3.7481 0.32772 0.16285 0.96697 1.2997 0.96944 1.5855 0.67523-0.95765 1.6206-2.0338 1.9048-2.7177 0.2841-0.6839 0.36715-0.65914 1.1307-0.80291 0.32886-0.0619 0.86443 0.15805 1.2711-0.30895 0.27913-0.32054 0.9132 1.605 0.84043 1.7464 0.48827-0.21291 0.82055-2.0171 0.52552-2.7306 0.12372-0.94687 0.97696-1.0867 1.4096 0.6401 0.35235 0 0.39484-2.2158 0.27509-2.4568-0.2231-0.44897 0.47162-0.84873 0.4667-1.1322-0.0115-0.68488-0.95996-2.5031-0.95996-2.5031l-1.0472-1.4375s1.3362 3.3637 1.3546 3.9406c-0.25723 1.0233-2.0556 1.4107-1.9086 2.4901 0.0178 0.13012 0.30401 1.9149-0.0322 2.4587-0.0569-0.71927-0.81445-2.0161-1.0738-1.7779-0.35673 0.32722-0.79032 0.22584-1.0226 0.3071-0.84147 0.29451-1.8667 0.7497-1.9768 1.3579-0.11015 0.60822-0.72269 1.4644-1.1174 1.8556-0.25899-0.51459-0.53702-0.8075-1.4286-0.87136 0.21756 1.081-0.55397 3.9738-0.55397 3.9738s-1.5221-2.564-1.9636-3.5946c-0.44148-1.0306-1.4886-2.0624-1.9958-2.4642-1.0032-0.51667-1.4031-0.60858-1.3394-2.5308 0.20339-1.8102-1.0954-2.3794-1.624-2.566-0.52861-0.18649-0.75353 0.0424-1.2863 0.1591 0.29394-0.25378 0.51431-1.4184 0.42877-1.6299-0.20202-0.5627-0.36509-1.143-0.50091-1.6188z"/>
</svg>
