<?xml version="1.0" encoding="UTF-8" standalone="no"?>
<svg xmlns:rdf="http://www.w3.org/1999/02/22-rdf-syntax-ns#" xmlns="http://www.w3.org/2000/svg" version="1.1" xmlns:cc="http://creativecommons.org/ns#" xmlns:dc="http://purl.org/dc/elements/1.1/" viewBox="0 0 256 256">
 <g transform="matrix(3.5 0 0 3.3693 -2.1429 6.2369)">
  <circle cx="36" cy="9" r="5"/>
  <path d="m24 22v15.5a2.25 2.25 0 0 0 4.5 0v-14.5h1v39.5a3 3 0 0 0 6 0v-22.5h1v22.5a3 3 0 0 0 6 0v-39.5h1v14.5a2.25 2.25 0 0 0 4.5 0v-15.5a7 7 0 0 0 -7 -7h-10a7 7 0 0 0 -7 7z"/>
 </g>
</svg>
