<?xml version="1.0" encoding="UTF-8" standalone="no"?>
<svg xmlns:rdf="http://www.w3.org/1999/02/22-rdf-syntax-ns#" xmlns="http://www.w3.org/2000/svg" version="1.1" xmlns:cc="http://creativecommons.org/ns#" xmlns:dc="http://purl.org/dc/elements/1.1/" viewBox="0 0 256 256">
 <path stroke-linejoin="round" d="m113.61 47.081-8.3457 0.85116-4.1636 8.2648 7.7818 10.745 11.859 4.9793 9.6981 4.4669 6.2943-8.9338 6.1238-2.7578 5.2678-6.1096-8.6006-8.7584-8.0857-2.6386-17.829-0.10895zm58.013 8.4793-1.008 8.8299-0.14858 11.646-5.6983 7.8783-1.3878 6.4824 5.5835-4.821 3.9947-2.7067 2.6086 4.4243-3.0864 4.7103-5.7236 3.2106-5.315 5.5632 2.6997 8.5354 2.3806 6.5658 1.2021 8.641 0.97927 4.0175 3.3295-2.6216 2.1105-3.8762-1.1599-7.5089 1.3304-1.2767 3.5844 5.9649 1.8944 1.813 0.24651-1.2546-1.864-3.631-0.88134-3.6089 2.6339 0.14129 2.2861 2.1568 0.8442 2.8752 2.3097 1.3704 1.1819-2.8446 1.2781-2.7305 1.5871 3.4676-1.4334 0.4494-1.4284 1.6325 0.12157 2.2726 2.2844-0.97543 2.2185 1.0946 0.32417 3.2702-0.17728 3.3127-1.0215 3.2668-3.0729 0.40686-10.667-1.9832-6.5357 3.7332 1.9298 10.376 3.4342 1.4061 3.4561 0.0579 2.4127 2.4684 1.7745 7.6417 2.1527 7.2127 4.3797 5.49 4.9926-0.49708 2.0379-8.2273 0.89315-9.0478-3.3582-8.2375-2.7251-5.553 8.42 11.431 3.235-2.1126 0.64327-3.168-3.0526-4.6882-1.5854-3.4336 0.10636-1.7193 6.3754 8.035 2.2692 2.3083c0.76154-4.8968 1.269-9.6212 1.2629-14.303-0.008-6.4162-0.57932-12.746-1.68-18.378-2.1492-10.999-5.4495-19.165-10.931-28.276-0.46622-0.77498-5.5206-8.8761-11.739-15.423-5.7105-6.0118-12.624-10.509-13.109-11.256zm-102.47 13.778c0 0.000001-2.9682 3.2844-6.014 7.4477-2.5691 3.5117-5.1607 7.7268-6.4041 10.338-1.2641 2.6549-3.7487 7.7538-5.5362 13.469-2.0551 6.5707-3.3606 13.845-3.6908 17.301-0.84956 8.8913-0.24144 18.12-0.24144 18.12l4.5705-2.0956 4.3037-7.6043 3.061 1.1712-1.3743 5.7011 3.5692 4.4005-1.4959-4.7784 2.5951-5.0916 3.3531 2.8531 5.5396-2.5603 6.1711-14.185 3.2282-8.2239 1.7762 3.0693 2.1392-5.8407 6.6624-5.6977 2.6795-7.703-18.687-8.9542-6.2048-11.135zm38.394 18.525-8.9839 1.4555-1.6563 9.024 9.092 0.48857 2.2675 8.6512 7.9557 11.995 3.2468 5.89-0.6838-4.661 5.6105 9.293 7.3327 6.1147 4.2463 6.3905-9.4769 9.7288 3.7634 12.868 8.496 9.7713 9.5191 21.997 14.032-31.684-3.6807-19.915-20.874-3.5493-4.3763-6.7122-6.2757-15.772 6.5746-2.9569 2.4465 5.7249 5.9313-17.549-3.0323-1.1661 0.30391-12.837-20.512-1.5406-6.7147 0.02383-4.5519-1.0725zm-57.954 61.027s2.3443 9.673 4.1281 14.022 6.4209 11.972 6.4209 11.972l12.025 3.6089 4.9504-7.0408-1.259-13.15-5.072-8.42-21.193-0.99zm149.28 2.9382c0.86491 3.8204 0.86597 7.1181-0.30559 9.7066l3.2096-0.77115 0.45924-8.0111-3.3633-0.92437zm-12.53 31.301-34.072 19.023-23.556 2.3237-16.209-4.6252-27.941-6.9165 0.45924 7.2706c1.4113 0.56218 4.2435 2.9283 7.8223 4.6218 5.8929 2.7886 13.255 5.2447 15.531 5.8373 13.408 3.4905 26.324 3.2358 38.902 0.10215 2.437-0.60715 10.21-2.7178 17.617-6.6561 2.7711-1.4736 5.8619-3.2177 8.29-5.1019 1.4024-1.0883 2.6544-2.0602 3.8867-3.1442 3.1462-2.7678 5.7552-5.219 6.973-6.1182l2.2962-6.6169zm22.77-55.17a81.119 85.156 0 0 1 -81.12 85.15 81.119 85.156 0 0 1 -81.119 -85.15 81.119 85.156 0 0 1 81.119 -85.16 81.119 85.156 0 0 1 81.12 85.16z" fill-rule="evenodd" stroke="#000" stroke-linecap="round" stroke-miterlimit="25" fill="#1a1a1a"/>
 <path d="m103.02 37.958v35.425h-40.954l-0.0085 49.469h40.962v95.189h49.934v-95.187l40.994-0.002-0.002-49.469h-40.992v-35.425h-49.934z" stroke="#000" stroke-linecap="round" stroke-width="0.3" fill="#fff"/>
</svg>
