<?xml version="1.0" encoding="UTF-8" standalone="no"?>
<svg xmlns:rdf="http://www.w3.org/1999/02/22-rdf-syntax-ns#" xmlns="http://www.w3.org/2000/svg" version="1.1" xmlns:cc="http://creativecommons.org/ns#" xmlns:dc="http://purl.org/dc/elements/1.1/" viewBox="0 0 256 256">
 <path d="m79.447 11.516l-29.252 19.384 126.62 0.047 28.99-19.424-126.36-0.007zm126.81 0.183l-29.23 19.475 0.03 213.1 29.2-19.43v-213.14zm-2.32 19.174v14.82l-8.62 5.934v-14.82l8.62-5.934zm-154.19 0.397v213.17h50.27v-29.62h22.12v29.62h54.53v-213.17h-126.92zm140.82 7.271v15.5l-11.8 7.664v-15.5l11.8-7.664zm-70.73 9.91h47.75v22.166h-47.75v-22.166zm-60.781 0.088h47.741v22.164h-47.741v-22.164zm145.09 24.838v14.822l-8.62 5.932v-14.82l8.62-5.934zm-13.37 7.668v15.5l-11.8 7.665v-15.501l11.8-7.664zm-72.35 10.857h47.75v20.768h-47.75v-20.768zm-60.787 0.08h47.747v20.768h-47.747v-20.768zm145.66 26.818v14.82l-8.63 5.94v-14.82l8.63-5.94zm-13.37 7.67v15.5l-11.8 7.66v-15.49l11.8-7.67zm-71.5 9.95h47.75v21.46h-47.75v-21.46zm-60.785 0.08h47.745v21.46h-47.745v-21.46zm146.16 24.38v14.82l-8.63 5.93v-14.82l8.63-5.93zm-13.37 7.67v15.5l-11.8 7.66v-15.5l11.8-7.66zm-71.33 11.63h47.74v20.42h-47.74v-20.42zm-60.791 0.08h47.751v20.42h-47.751v-20.42zm146.29 21.98v14.82l-8.62 5.93v-14.82l8.62-5.93zm-13.37 7.66v15.5l-11.8 7.67v-15.5l11.8-7.67z" stroke="#000" stroke-miterlimit="25" stroke-width=".39908" fill="#333"/>
</svg>
