<?xml version="1.0" encoding="UTF-8" standalone="no"?>
<svg xmlns:rdf="http://www.w3.org/1999/02/22-rdf-syntax-ns#" xmlns="http://www.w3.org/2000/svg" version="1.1" xmlns:cc="http://creativecommons.org/ns#" xmlns:dc="http://purl.org/dc/elements/1.1/" viewBox="0 0 256 256">
 <path d="m114.84 36.434c-1.1888-0.0207-2.4451 0.21246-3.666 0.72656l-14.148 5.959 20.594 48.902 14.15-5.959c3.9067-1.6454 5.9881-5.5551 4.6504-8.7324l-15.75-37.397c-0.9201-2.1842-3.2167-3.4545-5.832-3.5zm-24.887 9.664c-10.611 4.469-38.715 36.625-9.641 105.66 29.075 69.039 75.254 69.913 82.328 66.934l-20.596-48.902c-10.612 4.4689-20.302-18.545-26.359-32.928-6.0573-14.383-15.75-37.396-5.1387-41.865l-20.587-48.899zm53.844 48.078v12.555h-12.215v6.2773h12.215v10.463h-12.215v6.2774h12.215v12.557h6.1074v-12.557h10.18v12.557h6.1074v-12.557h12.215v-6.2774h-12.215v-10.463h12.215v-6.2773h-12.215v-12.555h-6.1074v12.555h-10.18v-12.555h-6.1074zm6.1074 18.832h10.18v10.463h-10.18v-10.463zm16.59 47.146c-1.189-0.0208-2.4429 0.21233-3.6641 0.72656l-14.148 5.957 20.594 48.904 14.148-5.959c3.9067-1.6454 5.9901-5.5551 4.6523-8.7324l-15.748-37.395c-0.91946-2.1851-3.2182-3.4562-5.834-3.502z"/>
</svg>
