<?xml version="1.0" encoding="UTF-8" standalone="no"?>
<svg xmlns:rdf="http://www.w3.org/1999/02/22-rdf-syntax-ns#" xmlns="http://www.w3.org/2000/svg" version="1.1" xmlns:cc="http://creativecommons.org/ns#" xmlns:dc="http://purl.org/dc/elements/1.1/" viewBox="0 0 256 256">
 <path d="m128.56 7.0004c-26.469 0.40433-72.038 26.257-76.866 26.386-4.8282 0.1297 0.13594 22.235 8.6674 26.452-0.000002 0 27.792 15.064 37.26 15.639 9.4682 0.57502 22.287-4.3946 32.21-4.7632 9.9225-0.36858 21.514 5.0837 29.61 4.7632 8.0962-0.32056 37.867-15.639 37.867-15.639 5.986-3.1115 9.059-26.385 4.1765-26.452-4.8824-0.06702-46.456-26.791-72.925-26.386zm0 28.666c0.89319 0.00096 4.0065 4.1543 4.0065 4.1543h13.228l-2.2038 5.8175h-11.025l1.2793 3.9325h-10.467l1.4685-3.9325h-12.126l-3.3076-5.8175h15.434s2.8193-4.1553 3.7125-4.1543zm0.0918 18.519c18.609 0.01707 57.514 4.8559 57.514 4.8559l-12.538 4.2212s-29.168-4.9476-44.755-4.8559c-15.587 0.0918-43.98 4.8559-43.98 4.8559l-12.532-4.221s37.689-4.873 56.298-4.8559zm-61.99 12.34c-4.7293 6.0871-6.284 8.8264-6.284 20.653 0 32.281 32.142 58.451 69.455 58.451s65.665-26.169 65.665-58.451c0-9.9445-0.57936-13.252-3.5067-20.198 0 0-23.05 12.427-32.548 12.332-9.4983-0.09545-19.299-4.7051-29.61-4.4248-10.311 0.28027-22.053 4.2277-32.21 4.4248-10.157 0.198-30.961-12.786-30.961-12.786zm3.4554 92.054c-28.807 1.034-71.746 32.771-71.294 38.268l-0.0019 59.12 258.34 0.0325 0.0217-59.175c0-4.4373-36.678-37.288-72.506-38.245h-114.56zm111.47 25.06c1.2726 0.00096 5.5488 5.4065 5.5488 5.4065h18.848l-3.14 7.5764h-15.708l1.8233 5.1178h-14.91l2.0914-5.1178h-17.277l-4.711-7.5764h21.988s4.1737-5.4078 5.4463-5.4065z"/>
</svg>
