<?xml version="1.0" encoding="UTF-8" standalone="no"?>
<svg
   xmlns:dc="http://purl.org/dc/elements/1.1/"
   xmlns:cc="http://creativecommons.org/ns#"
   xmlns:rdf="http://www.w3.org/1999/02/22-rdf-syntax-ns#"
   xmlns:svg="http://www.w3.org/2000/svg"
   xmlns="http://www.w3.org/2000/svg"
   xmlns:sodipodi="http://sodipodi.sourceforge.net/DTD/sodipodi-0.dtd"
   xmlns:inkscape="http://www.inkscape.org/namespaces/inkscape"
   version="1.1"
   viewBox="0 0 256 256"
   id="svg2"
   inkscape:version="0.91 r13725"
   sodipodi:docname="takeOff.svg">
  <metadata
     id="metadata10">
    <rdf:RDF>
      <cc:Work
         rdf:about="">
        <dc:format>image/svg+xml</dc:format>
        <dc:type
           rdf:resource="http://purl.org/dc/dcmitype/StillImage" />
      </cc:Work>
    </rdf:RDF>
  </metadata>
  <defs
     id="defs8" />
  <sodipodi:namedview
     pagecolor="#ffffff"
     bordercolor="#666666"
     borderopacity="1"
     objecttolerance="10"
     gridtolerance="10"
     guidetolerance="10"
     inkscape:pageopacity="0"
     inkscape:pageshadow="2"
     inkscape:window-width="742"
     inkscape:window-height="696"
     id="namedview6"
     showgrid="false"
     inkscape:zoom="1.3037281"
     inkscape:cx="170.83733"
     inkscape:cy="80.991203"
     inkscape:window-x="2535"
     inkscape:window-y="0"
     inkscape:window-maximized="0"
     inkscape:current-layer="svg2" />
  <path
     id="path3352"
     d="m 220.7793,42.304688 c -12.071,3.23e-4 -21.85547,9.541146 -21.85547,21.310546 -1e-4,11.77 9.78397,21.3125 21.85547,21.3125 12.071,-3.23e-4 21.85742,-9.5431 21.85742,-21.3125 1e-4,-11.77 -9.78592,-21.310546 -21.85742,-21.310546 z m 0.2207,4.660156 2.47461,0 0,20.53125 -15.49609,0 0,-2.390625 13.02148,0 0,-18.140625 z M 15.67565,85.19193 l 32.864,54.338 48.426,-6.3852 -31.961,21.174 c 14.786857,-2.57643 29.342375,-10.3375 41.2428,-15.5584 -0.64555,2.1791 1.5788,4.1469 3.183,4.1737 3.73206,-0.54245 4.1879,-4.92151 1.1476,-6.0876 3.1423,-1.4008 6.2683,-2.8218 9.3809,-4.2611 l 0.028,2.2822 c -3.16407,1.33498 -1.62111,5.42066 0.9233,5.4664 3.3244,-0.51521 3.46954,-4.60556 0.785,-5.4887 l -0.0374,-3.0373 c 26.39849,-8.91313 59.04346,-8.6181 84.522,-13.2764 l 0.0467,3.7627 c -3.16407,1.33498 -1.62111,5.42066 0.9233,5.4664 3.3244,-0.51521 3.46954,-4.60556 0.785,-5.4887 l -0.0504,-4.0826 c 14.776,-2.954 44.017,-10.968 0.53455,-22.368 -12.28,-3.221 -145.42,16.028 -152.31,13.718 C 42.618516,105.94222 30.430319,80.206739 15.67565,85.19193 Z m 115.0949,62.54427 -20.971,21.032 0.0561,14.284 15.252,-15.296 0.12149,30.473 11.482,-0.0465 -0.11962,-30.471 15.371,15.175 -0.0561,-14.284 z m -120.7,58.265 0,7.6946 235.87,0 0,-7.6946 z" />
</svg>
