<?xml version="1.0" encoding="UTF-8" standalone="no"?>
<svg xmlns:rdf="http://www.w3.org/1999/02/22-rdf-syntax-ns#" xmlns="http://www.w3.org/2000/svg" version="1.1" xmlns:cc="http://creativecommons.org/ns#" xmlns:dc="http://purl.org/dc/elements/1.1/" viewBox="0 0 256 256">
 <path d="m123.31 19.037c-14.03-0.112-27.524 3.442-37.756 10.797-14.193 10.203-16.916 44.523-17.424 55.062-9.214 1.342-17.65 2.939-24.871 4.742-16.782 21.022-29.181 133.69-20.519 142.45 8.6621 8.7537 200.6 4.3381 210.35-2.3906 9.7516-6.7287-6.131-106.51-20.271-139.2-9.24-3.138-20.16-5.451-32.03-7.071-1.09-12.607-5.09-43.564-18.61-53.191-10.26-7.311-24.83-11.089-38.87-11.201zm0 18.977c9.6592-0.06173 18.921 2.5582 25.934 7.6875 8.9208 6.5252 11.63 26.668 12.416 35.754-24.791-1.7957-51.809-1.1056-75.711 1.2695 0.79507-9.1363 3.6905-31.37 13.566-38.164 6.3226-4.3494 15.272-6.4924 23.795-6.5469zm33.801 90.77c7.6963 0.0223 13.563 1.9801 19.182 4.5371v7.959c-4.5724-2.626-8.3311-4.8759-13.41-6.0625-16.035-1.3522-25.846 4.0521-26.008 19.439 0.44254 19.226 18.299 23.612 32.555 18.354v-12.359h-14.043v-5.8926h20.941v21.639c-6.3061 2.6263-12.747 4.671-19.217 4.707-17.221-1.2314-27.198-8.9956-27.484-26.244 1.0761-17.409 11.641-25.935 27.484-26.076zm-74.293 0.91407h6.9688v26.312l25.445-26.312h8.4453l-23.402 23.705 24.494 26.719h-9.0449l-20.729-22.451-5.209 5.3496v17.102h-6.9688v-50.424z"/>
</svg>
